<svg viewBox="0 0 29 22" fill="none" xmlns="http://www.w3.org/2000/svg">
  <g clip-path="url(#a)">
    <path d="M5.13429 21.9517v-1.46c0-.5585-.34021-.9243-.92423-.9243-.29201 0-.60953.0964-.82783.414-.17011-.2665-.41392-.414-.77964-.414-.24382 0-.48763.0737-.68042.3402v-.292h-.5103v2.3361h.5103v-1.2899c0-.414.2183-.6096.55851-.6096.34021 0 .51031.2183.51031.6096v1.2899h.51031v-1.2899c0-.414.24381-.6096.5585-.6096.34021 0 .51031.2183.51031.6096v1.2899h.56418Zm7.56961-2.3361h-.8279v-.7059h-.5103v.7059h-.4621v.4621h.4621v1.0717c0 .5358.2183.8505.8024.8505.2183 0 .4621-.0737.6322-.1701l-.1474-.4394c-.1475.0964-.3176.1219-.4395.1219-.2438 0-.3402-.1474-.3402-.3884v-1.0462h.8278v-.4621h.0029Zm4.3319-.051c-.292 0-.4876.1474-.6095.3402v-.292h-.5103v2.3361h.5103v-1.3155c0-.3884.1701-.6095.4876-.6095.0964 0 .2183.0255.3176.0482l.1474-.4877c-.1021-.0198-.2467-.0198-.3431-.0198Zm-6.5461.2438c-.2438-.1701-.58401-.2438-.94974-.2438-.58402 0-.97242.292-.97242.7541 0 .3884.29201.6096.80232.6804l.24382.0256c.26649.0481.41392.1219.41392.2438 0 .1701-.19563.292-.53583.292-.34021 0-.60954-.1219-.77964-.2438l-.24382.3884c.2665.1956.63222.292.99794.292.68045 0 1.07165-.3175 1.07165-.7541 0-.414-.3175-.6323-.80232-.706l-.24381-.0255c-.2183-.0255-.3884-.0737-.3884-.2183 0-.1701.1701-.2665.43943-.2665.29201 0 .584.1219.7314.1956l.2155-.4139Zm13.5771-.2438c-.292 0-.4877.1474-.6096.3402v-.292h-.5103v2.3361h.5103v-1.3155c0-.3884.1701-.6095.4877-.6095.0964 0 .2183.0255.3175.0482l.1474-.482c-.0992-.0255-.2438-.0255-.343-.0255Zm-6.5206 1.2191c0 .7059.4876 1.2162 1.2417 1.2162.3402 0 .584-.0737.8278-.2665l-.2438-.4139c-.1956.1474-.3884.2183-.6095.2183-.4139 0-.7059-.292-.7059-.7541 0-.4395.292-.7315.7059-.7541.2183 0 .4139.0737.6095.2183l.2438-.414c-.2438-.1956-.4876-.2665-.8278-.2665-.7541-.0028-1.2417.5103-1.2417 1.2163Zm4.7203 0v-1.1681h-.5103v.292c-.1701-.2183-.4139-.3402-.7314-.3402-.6578 0-1.1681.5103-1.1681 1.2163 0 .7059.5103 1.2162 1.1681 1.2162.3402 0 .584-.1219.7314-.3402v.292h.5103v-1.168Zm-1.874 0c0-.4139.2665-.7541.706-.7541.4139 0 .7059.3175.7059.7541 0 .4139-.292.7541-.7059.7541-.4366-.0255-.706-.343-.706-.7541Zm-6.1067-1.2191c-.6804 0-1.168.4876-1.168 1.2162 0 .7315.4876 1.2163 1.1936 1.2163.3402 0 .6804-.0964.9497-.3175l-.2438-.3658c-.1956.1475-.4394.2438-.6804.2438-.3176 0-.6322-.1474-.706-.5585h1.7266v-.1956c.0227-.7513-.4168-1.2389-1.0717-1.2389Zm0 .4394c.3176 0 .5359.1957.5841.5585h-1.2163c.0482-.3147.2665-.5585.6322-.5585Zm12.6784.7797v-2.0923h-.5103v1.2162c-.1701-.2183-.4139-.3402-.7315-.3402-.6577 0-1.168.5103-1.168 1.2163 0 .7059.5103 1.2162 1.168 1.2162.3403 0 .5841-.1219.7315-.3402v.292h.5103v-1.168Zm-1.874 0c0-.4139.2665-.7541.706-.7541.4139 0 .7059.3175.7059.7541 0 .4139-.292.7541-.7059.7541-.4395-.0255-.706-.343-.706-.7541Zm-17.084 0v-1.1681h-.51031v.292c-.1701-.2183-.41392-.3402-.73144-.3402-.65774 0-1.16805.5103-1.16805 1.2163 0 .7059.51031 1.2162 1.16805 1.2162.3402 0 .58402-.1219.73144-.3402v.292h.51031v-1.168Zm-1.89665 0c0-.4139.26649-.7541.70593-.7541.41391 0 .70592.3175.70592.7541 0 .4139-.29201.7541-.70592.7541-.43944-.0255-.70593-.343-.70593-.7541Z" fill="#fff"></path>
    <path d="M17.9856 1.87402h-7.666V15.6467h7.666V1.87402Z" fill="#FF5A00"></path>
    <path d="M10.8299 8.76031c0-2.7982 1.3155-5.2817 3.334-6.88634C12.6784.705928 10.8044 0 8.76031 0 3.91804 0 0 3.91804 0 8.76031c0 4.84229 3.91804 8.76029 8.76031 8.76029 2.04409 0 3.91809-.7059 5.40359-1.8739-2.0214-1.582-3.334-4.0882-3.334-6.88639Z" fill="#EB001B"></path>
    <path d="M28.3277 8.76031c0 4.84229-3.918 8.76029-8.7603 8.76029-2.044 0-3.918-.7059-5.4036-1.8739 2.0441-1.6075 3.334-4.0882 3.334-6.88639 0-2.7982-1.3154-5.2817-3.334-6.88634C15.6466.705928 17.5205 0 19.5646 0c4.8451 0 8.7631 3.94356 8.7631 8.76031Z" fill="#F79E1B"></path>
  </g>
  <defs>
    <clipPath id="a">
      <path fill="#fff" d="M0 0h28.3278v22H0z"></path>
    </clipPath>
  </defs>
</svg>